<?xml version="1.0" encoding="UTF-8"?>
<svg id="Layer_1" data-name="Layer 1" xmlns="http://www.w3.org/2000/svg" viewBox="0 0 449.03 449.03">
  <g>
    <path d="M206.33,2.76C117.51,9.94,43.45,69.29,14.76,150.1-3.93,125.33-2.59,95.58,21.98,70.23,62.21,28.7,138.59,7.08,206.33,2.76Z"/>
    <path d="M427.06,378.8c-40.19,41.49-116.49,63.07-184.15,67.43,88.7-7.26,162.69-66.53,191.34-147.26,18.68,24.77,17.35,54.52-7.18,79.83Z"/>
  </g>
  <path d="M34.26,168.9c-20.57,14.99-31.67,33.68-32.22,52.87.27-25.12,4.75-49.22,12.72-71.67,5.06,6.71,11.58,13.03,19.51,18.8Z"/>
  <path d="M224.5,113.25v111.27c-66.13-2.32-144.87-17.54-190.24-55.62,45.37-38.11,124.1-53.34,190.24-55.65Z"/>
  <path d="M21.98,267.53c43.88,45.33,130.74,66.88,202.52,68.25v111.23C101.61,447.02,2,347.4,2,224.52v-.79c.12,14.91,6.59,30.03,19.98,43.8Z"/>
  <path d="M224.5,224.52c66.17,2.32,144.87,17.54,190.24,55.62-45.37,38.11-124.07,53.34-190.24,55.65v-111.27Z"/>
  <path d="M447,226.52c-.2,25.39-4.67,49.77-12.76,72.41-5.06-6.71-11.58-13.03-19.51-18.8,20.8-15.15,31.99-34.19,32.26-53.61Z"/>
  <path d="M427.06,181.46c-43.88-45.29-130.78-66.84-202.56-68.21V2.02c122.89,0,222.54,99.61,222.54,222.5v.75c-.12-14.91-6.59-30.03-19.98-43.8Z"/>
</svg>