<svg xmlns="http://www.w3.org/2000/svg" width="32" height="32" viewBox="-2 0 134 134">
  <defs>
    <linearGradient id="a" gradientUnits="userSpaceOnUse" x1="28.42" y1="9.17" x2="127.86" y2="93.23"><stop offset="0.0" stop-color="#f78f4e"/><stop offset="0.5" stop-color="#ef4c90"/><stop offset="1.0" stop-color="#7a59a6"/></linearGradient>
    <linearGradient id="b" gradientUnits="userSpaceOnUse" x1="1.44" y1="41.09" x2="100.88" y2="125.15"><stop offset="0.0" stop-color="#f78f4e"/><stop offset="0.5" stop-color="#ef4c90"/><stop offset="1.0" stop-color="#7a59a6"/></linearGradient>
  </defs>
  <path d="M128.44,81.89l-.02.07c-.04.12-.09.23-.14.35-2.01,5.3-6.98,9.41-14.21,11.49-8.64-14.99-28.72-27.03-46.64-34.26l5.57-15.29c-18.39-5.96-41.52-9.65-57.77-3.72-1.6-2.37-2.76-4.76-3.47-7.11C28.78,12.8,57.55,4.07,84.1,13.74l-5.55,15.25c19.55,7.55,41.25,22.15,48.76,38.96,2.28,5.08,2.57,9.87,1.13,13.94Z" fill="url(#a)"/>
  <path d="M117.56,100.9c-17.01,20.63-45.79,29.36-72.35,19.7l5.56-15.28c-19.57-7.54-41.26-22.13-48.76-38.95-2.3-5.12-2.57-9.92-1.11-14.01.07-.18.13-.36.21-.53,2.06-5.22,6.99-9.24,14.12-11.3,8.64,14.97,28.73,27.03,46.65,34.26l-5.56,15.28c18.38,5.97,41.5,9.66,57.75,3.73,1.6,2.37,2.76,4.76,3.49,7.1Z" fill="url(#b)"/>
</svg>
