<svg width="53" height="53" viewBox="0 0 53 53" fill="none" xmlns="http://www.w3.org/2000/svg">
<path d="M25.0698 4.07996C15.9098 4.81996 8.26979 10.94 5.31979 19.27C3.38979 16.72 3.52979 13.65 6.05979 11.03C10.2098 6.74996 18.0898 4.51996 25.0698 4.07996Z" fill="black"/>
<path d="M47.8298 42.85C43.6898 47.13 35.8198 49.35 28.8398 49.8C37.9898 49.05 45.6198 42.94 48.5698 34.62C50.4998 37.17 50.3598 40.24 47.8298 42.85Z" fill="black"/>
<path d="M7.33 21.21C5.21 22.75 4.06 24.68 4 26.66C4.03 24.07 4.49 21.58 5.31 19.27C5.83 19.96 6.5 20.61 7.32 21.21H7.33Z" fill="black"/>
<path d="M26.9398 15.47V26.94C20.1198 26.7 11.9998 25.13 7.31982 21.21C11.9998 17.28 20.1198 15.71 26.9398 15.47Z" fill="black"/>
<path d="M6.06 31.38C10.58 36.05 19.54 38.28 26.94 38.42V49.89C14.27 49.89 4 39.61 4 26.94V26.86C4.01 28.4 4.68 29.96 6.06 31.38Z" fill="black"/>
<path d="M26.9399 26.9399C33.7599 27.1799 41.8799 28.7499 46.5599 32.6699C41.8799 36.5999 33.7699 38.1699 26.9399 38.4099V26.9399Z" fill="black"/>
<path d="M49.8901 27.15C49.8701 29.77 49.4101 32.28 48.5701 34.62C48.0501 33.93 47.3801 33.28 46.5601 32.68C48.7001 31.12 49.8601 29.16 49.8901 27.15Z" fill="black"/>
<path d="M47.8299 22.5C43.3099 17.83 34.3499 15.61 26.9399 15.47V4C39.6099 4 49.8899 14.27 49.8899 26.94V27.02C49.8799 25.48 49.2099 23.92 47.8299 22.5Z" fill="black"/>
</svg>
